<?xml version="1.0" encoding="utf-8" standalone="no"?>
<!DOCTYPE svg PUBLIC "-//W3C//DTD SVG 1.1//EN"
  "http://www.w3.org/Graphics/SVG/1.1/DTD/svg11.dtd">
<!-- Created with matplotlib (http://matplotlib.org/) -->
<svg height="458.64pt" version="1.1" viewBox="0 0 979.2 458.64" width="979.2pt" xmlns="http://www.w3.org/2000/svg" xmlns:xlink="http://www.w3.org/1999/xlink">
 <defs>
  <style type="text/css">
*{stroke-linecap:butt;stroke-linejoin:round;}
  </style>
 </defs>
 <g id="figure_1">
  <g id="patch_1">
   <path d="M 0 458.64 
L 979.2 458.64 
L 979.2 0 
L 0 0 
z
" style="fill:#ffffff;"/>
  </g>
  <g id="axes_1">
   <g id="patch_2">
    <path d="M 122.4 408.1896 
L 881.28 408.1896 
L 881.28 55.0368 
L 122.4 55.0368 
z
" style="fill:#ffffff;"/>
   </g>
   <g id="matplotlib.axis_1">
    <g id="xtick_1">
     <g id="line2d_1">
      <defs>
       <path d="M 0 0 
L 0 3.5 
" id="m1dcc73147e" style="stroke:#000000;stroke-width:0.8;"/>
      </defs>
      <g>
       <use style="stroke:#000000;stroke-width:0.8;" x="156.894545" xlink:href="#m1dcc73147e" y="408.1896"/>
      </g>
     </g>
     <g id="text_1">
      <!-- 0 -->
      <defs>
       <path d="M 31.78125 66.40625 
Q 24.171875 66.40625 20.328125 58.90625 
Q 16.5 51.421875 16.5 36.375 
Q 16.5 21.390625 20.328125 13.890625 
Q 24.171875 6.390625 31.78125 6.390625 
Q 39.453125 6.390625 43.28125 13.890625 
Q 47.125 21.390625 47.125 36.375 
Q 47.125 51.421875 43.28125 58.90625 
Q 39.453125 66.40625 31.78125 66.40625 
z
M 31.78125 74.21875 
Q 44.046875 74.21875 50.515625 64.515625 
Q 56.984375 54.828125 56.984375 36.375 
Q 56.984375 17.96875 50.515625 8.265625 
Q 44.046875 -1.421875 31.78125 -1.421875 
Q 19.53125 -1.421875 13.0625 8.265625 
Q 6.59375 17.96875 6.59375 36.375 
Q 6.59375 54.828125 13.0625 64.515625 
Q 19.53125 74.21875 31.78125 74.21875 
z
" id="DejaVuSans-30"/>
      </defs>
      <g transform="translate(153.713295 422.788037)scale(0.1 -0.1)">
       <use xlink:href="#DejaVuSans-30"/>
      </g>
     </g>
    </g>
    <g id="xtick_2">
     <g id="line2d_2">
      <g>
       <use style="stroke:#000000;stroke-width:0.8;" x="251.400149" xlink:href="#m1dcc73147e" y="408.1896"/>
      </g>
     </g>
     <g id="text_2">
      <!-- 50 -->
      <defs>
       <path d="M 10.796875 72.90625 
L 49.515625 72.90625 
L 49.515625 64.59375 
L 19.828125 64.59375 
L 19.828125 46.734375 
Q 21.96875 47.46875 24.109375 47.828125 
Q 26.265625 48.1875 28.421875 48.1875 
Q 40.625 48.1875 47.75 41.5 
Q 54.890625 34.8125 54.890625 23.390625 
Q 54.890625 11.625 47.5625 5.09375 
Q 40.234375 -1.421875 26.90625 -1.421875 
Q 22.3125 -1.421875 17.546875 -0.640625 
Q 12.796875 0.140625 7.71875 1.703125 
L 7.71875 11.625 
Q 12.109375 9.234375 16.796875 8.0625 
Q 21.484375 6.890625 26.703125 6.890625 
Q 35.15625 6.890625 40.078125 11.328125 
Q 45.015625 15.765625 45.015625 23.390625 
Q 45.015625 31 40.078125 35.4375 
Q 35.15625 39.890625 26.703125 39.890625 
Q 22.75 39.890625 18.8125 39.015625 
Q 14.890625 38.140625 10.796875 36.28125 
z
" id="DejaVuSans-35"/>
      </defs>
      <g transform="translate(245.037649 422.788037)scale(0.1 -0.1)">
       <use xlink:href="#DejaVuSans-35"/>
       <use x="63.623047" xlink:href="#DejaVuSans-30"/>
      </g>
     </g>
    </g>
    <g id="xtick_3">
     <g id="line2d_3">
      <g>
       <use style="stroke:#000000;stroke-width:0.8;" x="345.905753" xlink:href="#m1dcc73147e" y="408.1896"/>
      </g>
     </g>
     <g id="text_3">
      <!-- 100 -->
      <defs>
       <path d="M 12.40625 8.296875 
L 28.515625 8.296875 
L 28.515625 63.921875 
L 10.984375 60.40625 
L 10.984375 69.390625 
L 28.421875 72.90625 
L 38.28125 72.90625 
L 38.28125 8.296875 
L 54.390625 8.296875 
L 54.390625 0 
L 12.40625 0 
z
" id="DejaVuSans-31"/>
      </defs>
      <g transform="translate(336.362003 422.788037)scale(0.1 -0.1)">
       <use xlink:href="#DejaVuSans-31"/>
       <use x="63.623047" xlink:href="#DejaVuSans-30"/>
       <use x="127.246094" xlink:href="#DejaVuSans-30"/>
      </g>
     </g>
    </g>
    <g id="xtick_4">
     <g id="line2d_4">
      <g>
       <use style="stroke:#000000;stroke-width:0.8;" x="440.411357" xlink:href="#m1dcc73147e" y="408.1896"/>
      </g>
     </g>
     <g id="text_4">
      <!-- 150 -->
      <g transform="translate(430.867607 422.788037)scale(0.1 -0.1)">
       <use xlink:href="#DejaVuSans-31"/>
       <use x="63.623047" xlink:href="#DejaVuSans-35"/>
       <use x="127.246094" xlink:href="#DejaVuSans-30"/>
      </g>
     </g>
    </g>
    <g id="xtick_5">
     <g id="line2d_5">
      <g>
       <use style="stroke:#000000;stroke-width:0.8;" x="534.916961" xlink:href="#m1dcc73147e" y="408.1896"/>
      </g>
     </g>
     <g id="text_5">
      <!-- 200 -->
      <defs>
       <path d="M 19.1875 8.296875 
L 53.609375 8.296875 
L 53.609375 0 
L 7.328125 0 
L 7.328125 8.296875 
Q 12.9375 14.109375 22.625 23.890625 
Q 32.328125 33.6875 34.8125 36.53125 
Q 39.546875 41.84375 41.421875 45.53125 
Q 43.3125 49.21875 43.3125 52.78125 
Q 43.3125 58.59375 39.234375 62.25 
Q 35.15625 65.921875 28.609375 65.921875 
Q 23.96875 65.921875 18.8125 64.3125 
Q 13.671875 62.703125 7.8125 59.421875 
L 7.8125 69.390625 
Q 13.765625 71.78125 18.9375 73 
Q 24.125 74.21875 28.421875 74.21875 
Q 39.75 74.21875 46.484375 68.546875 
Q 53.21875 62.890625 53.21875 53.421875 
Q 53.21875 48.921875 51.53125 44.890625 
Q 49.859375 40.875 45.40625 35.40625 
Q 44.1875 33.984375 37.640625 27.21875 
Q 31.109375 20.453125 19.1875 8.296875 
z
" id="DejaVuSans-32"/>
      </defs>
      <g transform="translate(525.373211 422.788037)scale(0.1 -0.1)">
       <use xlink:href="#DejaVuSans-32"/>
       <use x="63.623047" xlink:href="#DejaVuSans-30"/>
       <use x="127.246094" xlink:href="#DejaVuSans-30"/>
      </g>
     </g>
    </g>
    <g id="xtick_6">
     <g id="line2d_6">
      <g>
       <use style="stroke:#000000;stroke-width:0.8;" x="629.422565" xlink:href="#m1dcc73147e" y="408.1896"/>
      </g>
     </g>
     <g id="text_6">
      <!-- 250 -->
      <g transform="translate(619.878815 422.788037)scale(0.1 -0.1)">
       <use xlink:href="#DejaVuSans-32"/>
       <use x="63.623047" xlink:href="#DejaVuSans-35"/>
       <use x="127.246094" xlink:href="#DejaVuSans-30"/>
      </g>
     </g>
    </g>
    <g id="xtick_7">
     <g id="line2d_7">
      <g>
       <use style="stroke:#000000;stroke-width:0.8;" x="723.928169" xlink:href="#m1dcc73147e" y="408.1896"/>
      </g>
     </g>
     <g id="text_7">
      <!-- 300 -->
      <defs>
       <path d="M 40.578125 39.3125 
Q 47.65625 37.796875 51.625 33 
Q 55.609375 28.21875 55.609375 21.1875 
Q 55.609375 10.40625 48.1875 4.484375 
Q 40.765625 -1.421875 27.09375 -1.421875 
Q 22.515625 -1.421875 17.65625 -0.515625 
Q 12.796875 0.390625 7.625 2.203125 
L 7.625 11.71875 
Q 11.71875 9.328125 16.59375 8.109375 
Q 21.484375 6.890625 26.8125 6.890625 
Q 36.078125 6.890625 40.9375 10.546875 
Q 45.796875 14.203125 45.796875 21.1875 
Q 45.796875 27.640625 41.28125 31.265625 
Q 36.765625 34.90625 28.71875 34.90625 
L 20.21875 34.90625 
L 20.21875 43.015625 
L 29.109375 43.015625 
Q 36.375 43.015625 40.234375 45.921875 
Q 44.09375 48.828125 44.09375 54.296875 
Q 44.09375 59.90625 40.109375 62.90625 
Q 36.140625 65.921875 28.71875 65.921875 
Q 24.65625 65.921875 20.015625 65.03125 
Q 15.375 64.15625 9.8125 62.3125 
L 9.8125 71.09375 
Q 15.4375 72.65625 20.34375 73.4375 
Q 25.25 74.21875 29.59375 74.21875 
Q 40.828125 74.21875 47.359375 69.109375 
Q 53.90625 64.015625 53.90625 55.328125 
Q 53.90625 49.265625 50.4375 45.09375 
Q 46.96875 40.921875 40.578125 39.3125 
z
" id="DejaVuSans-33"/>
      </defs>
      <g transform="translate(714.384419 422.788037)scale(0.1 -0.1)">
       <use xlink:href="#DejaVuSans-33"/>
       <use x="63.623047" xlink:href="#DejaVuSans-30"/>
       <use x="127.246094" xlink:href="#DejaVuSans-30"/>
      </g>
     </g>
    </g>
    <g id="xtick_8">
     <g id="line2d_8">
      <g>
       <use style="stroke:#000000;stroke-width:0.8;" x="818.433773" xlink:href="#m1dcc73147e" y="408.1896"/>
      </g>
     </g>
     <g id="text_8">
      <!-- 350 -->
      <g transform="translate(808.890023 422.788037)scale(0.1 -0.1)">
       <use xlink:href="#DejaVuSans-33"/>
       <use x="63.623047" xlink:href="#DejaVuSans-35"/>
       <use x="127.246094" xlink:href="#DejaVuSans-30"/>
      </g>
     </g>
    </g>
    <g id="text_9">
     <!-- Time -->
     <defs>
      <path d="M -0.296875 72.90625 
L 61.375 72.90625 
L 61.375 64.59375 
L 35.5 64.59375 
L 35.5 0 
L 25.59375 0 
L 25.59375 64.59375 
L -0.296875 64.59375 
z
" id="DejaVuSans-54"/>
      <path d="M 9.421875 54.6875 
L 18.40625 54.6875 
L 18.40625 0 
L 9.421875 0 
z
M 9.421875 75.984375 
L 18.40625 75.984375 
L 18.40625 64.59375 
L 9.421875 64.59375 
z
" id="DejaVuSans-69"/>
      <path d="M 52 44.1875 
Q 55.375 50.25 60.0625 53.125 
Q 64.75 56 71.09375 56 
Q 79.640625 56 84.28125 50.015625 
Q 88.921875 44.046875 88.921875 33.015625 
L 88.921875 0 
L 79.890625 0 
L 79.890625 32.71875 
Q 79.890625 40.578125 77.09375 44.375 
Q 74.3125 48.1875 68.609375 48.1875 
Q 61.625 48.1875 57.5625 43.546875 
Q 53.515625 38.921875 53.515625 30.90625 
L 53.515625 0 
L 44.484375 0 
L 44.484375 32.71875 
Q 44.484375 40.625 41.703125 44.40625 
Q 38.921875 48.1875 33.109375 48.1875 
Q 26.21875 48.1875 22.15625 43.53125 
Q 18.109375 38.875 18.109375 30.90625 
L 18.109375 0 
L 9.078125 0 
L 9.078125 54.6875 
L 18.109375 54.6875 
L 18.109375 46.1875 
Q 21.1875 51.21875 25.484375 53.609375 
Q 29.78125 56 35.6875 56 
Q 41.65625 56 45.828125 52.96875 
Q 50 49.953125 52 44.1875 
z
" id="DejaVuSans-6d"/>
      <path d="M 56.203125 29.59375 
L 56.203125 25.203125 
L 14.890625 25.203125 
Q 15.484375 15.921875 20.484375 11.0625 
Q 25.484375 6.203125 34.421875 6.203125 
Q 39.59375 6.203125 44.453125 7.46875 
Q 49.3125 8.734375 54.109375 11.28125 
L 54.109375 2.78125 
Q 49.265625 0.734375 44.1875 -0.34375 
Q 39.109375 -1.421875 33.890625 -1.421875 
Q 20.796875 -1.421875 13.15625 6.1875 
Q 5.515625 13.8125 5.515625 26.8125 
Q 5.515625 40.234375 12.765625 48.109375 
Q 20.015625 56 32.328125 56 
Q 43.359375 56 49.78125 48.890625 
Q 56.203125 41.796875 56.203125 29.59375 
z
M 47.21875 32.234375 
Q 47.125 39.59375 43.09375 43.984375 
Q 39.0625 48.390625 32.421875 48.390625 
Q 24.90625 48.390625 20.390625 44.140625 
Q 15.875 39.890625 15.1875 32.171875 
z
" id="DejaVuSans-65"/>
     </defs>
     <g transform="translate(489.4525 436.466162)scale(0.1 -0.1)">
      <use xlink:href="#DejaVuSans-54"/>
      <use x="61.037109" xlink:href="#DejaVuSans-69"/>
      <use x="88.820312" xlink:href="#DejaVuSans-6d"/>
      <use x="186.232422" xlink:href="#DejaVuSans-65"/>
     </g>
    </g>
   </g>
   <g id="matplotlib.axis_2">
    <g id="ytick_1">
     <g id="line2d_9">
      <defs>
       <path d="M 0 0 
L -3.5 0 
" id="m1d883949a1" style="stroke:#000000;stroke-width:0.8;"/>
      </defs>
      <g>
       <use style="stroke:#000000;stroke-width:0.8;" x="122.4" xlink:href="#m1d883949a1" y="398.942412"/>
      </g>
     </g>
     <g id="text_10">
      <!-- 4000 -->
      <defs>
       <path d="M 37.796875 64.3125 
L 12.890625 25.390625 
L 37.796875 25.390625 
z
M 35.203125 72.90625 
L 47.609375 72.90625 
L 47.609375 25.390625 
L 58.015625 25.390625 
L 58.015625 17.1875 
L 47.609375 17.1875 
L 47.609375 0 
L 37.796875 0 
L 37.796875 17.1875 
L 4.890625 17.1875 
L 4.890625 26.703125 
z
" id="DejaVuSans-34"/>
      </defs>
      <g transform="translate(89.95 402.74163)scale(0.1 -0.1)">
       <use xlink:href="#DejaVuSans-34"/>
       <use x="63.623047" xlink:href="#DejaVuSans-30"/>
       <use x="127.246094" xlink:href="#DejaVuSans-30"/>
       <use x="190.869141" xlink:href="#DejaVuSans-30"/>
      </g>
     </g>
    </g>
    <g id="ytick_2">
     <g id="line2d_10">
      <g>
       <use style="stroke:#000000;stroke-width:0.8;" x="122.4" xlink:href="#m1d883949a1" y="356.500053"/>
      </g>
     </g>
     <g id="text_11">
      <!-- 6000 -->
      <defs>
       <path d="M 33.015625 40.375 
Q 26.375 40.375 22.484375 35.828125 
Q 18.609375 31.296875 18.609375 23.390625 
Q 18.609375 15.53125 22.484375 10.953125 
Q 26.375 6.390625 33.015625 6.390625 
Q 39.65625 6.390625 43.53125 10.953125 
Q 47.40625 15.53125 47.40625 23.390625 
Q 47.40625 31.296875 43.53125 35.828125 
Q 39.65625 40.375 33.015625 40.375 
z
M 52.59375 71.296875 
L 52.59375 62.3125 
Q 48.875 64.0625 45.09375 64.984375 
Q 41.3125 65.921875 37.59375 65.921875 
Q 27.828125 65.921875 22.671875 59.328125 
Q 17.53125 52.734375 16.796875 39.40625 
Q 19.671875 43.65625 24.015625 45.921875 
Q 28.375 48.1875 33.59375 48.1875 
Q 44.578125 48.1875 50.953125 41.515625 
Q 57.328125 34.859375 57.328125 23.390625 
Q 57.328125 12.15625 50.6875 5.359375 
Q 44.046875 -1.421875 33.015625 -1.421875 
Q 20.359375 -1.421875 13.671875 8.265625 
Q 6.984375 17.96875 6.984375 36.375 
Q 6.984375 53.65625 15.1875 63.9375 
Q 23.390625 74.21875 37.203125 74.21875 
Q 40.921875 74.21875 44.703125 73.484375 
Q 48.484375 72.75 52.59375 71.296875 
z
" id="DejaVuSans-36"/>
      </defs>
      <g transform="translate(89.95 360.299272)scale(0.1 -0.1)">
       <use xlink:href="#DejaVuSans-36"/>
       <use x="63.623047" xlink:href="#DejaVuSans-30"/>
       <use x="127.246094" xlink:href="#DejaVuSans-30"/>
       <use x="190.869141" xlink:href="#DejaVuSans-30"/>
      </g>
     </g>
    </g>
    <g id="ytick_3">
     <g id="line2d_11">
      <g>
       <use style="stroke:#000000;stroke-width:0.8;" x="122.4" xlink:href="#m1d883949a1" y="314.057694"/>
      </g>
     </g>
     <g id="text_12">
      <!-- 8000 -->
      <defs>
       <path d="M 31.78125 34.625 
Q 24.75 34.625 20.71875 30.859375 
Q 16.703125 27.09375 16.703125 20.515625 
Q 16.703125 13.921875 20.71875 10.15625 
Q 24.75 6.390625 31.78125 6.390625 
Q 38.8125 6.390625 42.859375 10.171875 
Q 46.921875 13.96875 46.921875 20.515625 
Q 46.921875 27.09375 42.890625 30.859375 
Q 38.875 34.625 31.78125 34.625 
z
M 21.921875 38.8125 
Q 15.578125 40.375 12.03125 44.71875 
Q 8.5 49.078125 8.5 55.328125 
Q 8.5 64.0625 14.71875 69.140625 
Q 20.953125 74.21875 31.78125 74.21875 
Q 42.671875 74.21875 48.875 69.140625 
Q 55.078125 64.0625 55.078125 55.328125 
Q 55.078125 49.078125 51.53125 44.71875 
Q 48 40.375 41.703125 38.8125 
Q 48.828125 37.15625 52.796875 32.3125 
Q 56.78125 27.484375 56.78125 20.515625 
Q 56.78125 9.90625 50.3125 4.234375 
Q 43.84375 -1.421875 31.78125 -1.421875 
Q 19.734375 -1.421875 13.25 4.234375 
Q 6.78125 9.90625 6.78125 20.515625 
Q 6.78125 27.484375 10.78125 32.3125 
Q 14.796875 37.15625 21.921875 38.8125 
z
M 18.3125 54.390625 
Q 18.3125 48.734375 21.84375 45.5625 
Q 25.390625 42.390625 31.78125 42.390625 
Q 38.140625 42.390625 41.71875 45.5625 
Q 45.3125 48.734375 45.3125 54.390625 
Q 45.3125 60.0625 41.71875 63.234375 
Q 38.140625 66.40625 31.78125 66.40625 
Q 25.390625 66.40625 21.84375 63.234375 
Q 18.3125 60.0625 18.3125 54.390625 
z
" id="DejaVuSans-38"/>
      </defs>
      <g transform="translate(89.95 317.856913)scale(0.1 -0.1)">
       <use xlink:href="#DejaVuSans-38"/>
       <use x="63.623047" xlink:href="#DejaVuSans-30"/>
       <use x="127.246094" xlink:href="#DejaVuSans-30"/>
       <use x="190.869141" xlink:href="#DejaVuSans-30"/>
      </g>
     </g>
    </g>
    <g id="ytick_4">
     <g id="line2d_12">
      <g>
       <use style="stroke:#000000;stroke-width:0.8;" x="122.4" xlink:href="#m1d883949a1" y="271.615335"/>
      </g>
     </g>
     <g id="text_13">
      <!-- 10000 -->
      <g transform="translate(83.5875 275.414554)scale(0.1 -0.1)">
       <use xlink:href="#DejaVuSans-31"/>
       <use x="63.623047" xlink:href="#DejaVuSans-30"/>
       <use x="127.246094" xlink:href="#DejaVuSans-30"/>
       <use x="190.869141" xlink:href="#DejaVuSans-30"/>
       <use x="254.492188" xlink:href="#DejaVuSans-30"/>
      </g>
     </g>
    </g>
    <g id="ytick_5">
     <g id="line2d_13">
      <g>
       <use style="stroke:#000000;stroke-width:0.8;" x="122.4" xlink:href="#m1d883949a1" y="229.172977"/>
      </g>
     </g>
     <g id="text_14">
      <!-- 12000 -->
      <g transform="translate(83.5875 232.972196)scale(0.1 -0.1)">
       <use xlink:href="#DejaVuSans-31"/>
       <use x="63.623047" xlink:href="#DejaVuSans-32"/>
       <use x="127.246094" xlink:href="#DejaVuSans-30"/>
       <use x="190.869141" xlink:href="#DejaVuSans-30"/>
       <use x="254.492188" xlink:href="#DejaVuSans-30"/>
      </g>
     </g>
    </g>
    <g id="ytick_6">
     <g id="line2d_14">
      <g>
       <use style="stroke:#000000;stroke-width:0.8;" x="122.4" xlink:href="#m1d883949a1" y="186.730618"/>
      </g>
     </g>
     <g id="text_15">
      <!-- 14000 -->
      <g transform="translate(83.5875 190.529837)scale(0.1 -0.1)">
       <use xlink:href="#DejaVuSans-31"/>
       <use x="63.623047" xlink:href="#DejaVuSans-34"/>
       <use x="127.246094" xlink:href="#DejaVuSans-30"/>
       <use x="190.869141" xlink:href="#DejaVuSans-30"/>
       <use x="254.492188" xlink:href="#DejaVuSans-30"/>
      </g>
     </g>
    </g>
    <g id="ytick_7">
     <g id="line2d_15">
      <g>
       <use style="stroke:#000000;stroke-width:0.8;" x="122.4" xlink:href="#m1d883949a1" y="144.288259"/>
      </g>
     </g>
     <g id="text_16">
      <!-- 16000 -->
      <g transform="translate(83.5875 148.087478)scale(0.1 -0.1)">
       <use xlink:href="#DejaVuSans-31"/>
       <use x="63.623047" xlink:href="#DejaVuSans-36"/>
       <use x="127.246094" xlink:href="#DejaVuSans-30"/>
       <use x="190.869141" xlink:href="#DejaVuSans-30"/>
       <use x="254.492188" xlink:href="#DejaVuSans-30"/>
      </g>
     </g>
    </g>
    <g id="ytick_8">
     <g id="line2d_16">
      <g>
       <use style="stroke:#000000;stroke-width:0.8;" x="122.4" xlink:href="#m1d883949a1" y="101.845901"/>
      </g>
     </g>
     <g id="text_17">
      <!-- 18000 -->
      <g transform="translate(83.5875 105.64512)scale(0.1 -0.1)">
       <use xlink:href="#DejaVuSans-31"/>
       <use x="63.623047" xlink:href="#DejaVuSans-38"/>
       <use x="127.246094" xlink:href="#DejaVuSans-30"/>
       <use x="190.869141" xlink:href="#DejaVuSans-30"/>
       <use x="254.492188" xlink:href="#DejaVuSans-30"/>
      </g>
     </g>
    </g>
    <g id="ytick_9">
     <g id="line2d_17">
      <g>
       <use style="stroke:#000000;stroke-width:0.8;" x="122.4" xlink:href="#m1d883949a1" y="59.403542"/>
      </g>
     </g>
     <g id="text_18">
      <!-- 20000 -->
      <g transform="translate(83.5875 63.202761)scale(0.1 -0.1)">
       <use xlink:href="#DejaVuSans-32"/>
       <use x="63.623047" xlink:href="#DejaVuSans-30"/>
       <use x="127.246094" xlink:href="#DejaVuSans-30"/>
       <use x="190.869141" xlink:href="#DejaVuSans-30"/>
       <use x="254.492188" xlink:href="#DejaVuSans-30"/>
      </g>
     </g>
    </g>
    <g id="text_19">
     <!-- Stock price -->
     <defs>
      <path d="M 53.515625 70.515625 
L 53.515625 60.890625 
Q 47.90625 63.578125 42.921875 64.890625 
Q 37.9375 66.21875 33.296875 66.21875 
Q 25.25 66.21875 20.875 63.09375 
Q 16.5 59.96875 16.5 54.203125 
Q 16.5 49.359375 19.40625 46.890625 
Q 22.3125 44.4375 30.421875 42.921875 
L 36.375 41.703125 
Q 47.40625 39.59375 52.65625 34.296875 
Q 57.90625 29 57.90625 20.125 
Q 57.90625 9.515625 50.796875 4.046875 
Q 43.703125 -1.421875 29.984375 -1.421875 
Q 24.8125 -1.421875 18.96875 -0.25 
Q 13.140625 0.921875 6.890625 3.21875 
L 6.890625 13.375 
Q 12.890625 10.015625 18.65625 8.296875 
Q 24.421875 6.59375 29.984375 6.59375 
Q 38.421875 6.59375 43.015625 9.90625 
Q 47.609375 13.234375 47.609375 19.390625 
Q 47.609375 24.75 44.3125 27.78125 
Q 41.015625 30.8125 33.5 32.328125 
L 27.484375 33.5 
Q 16.453125 35.6875 11.515625 40.375 
Q 6.59375 45.0625 6.59375 53.421875 
Q 6.59375 63.09375 13.40625 68.65625 
Q 20.21875 74.21875 32.171875 74.21875 
Q 37.3125 74.21875 42.625 73.28125 
Q 47.953125 72.359375 53.515625 70.515625 
z
" id="DejaVuSans-53"/>
      <path d="M 18.3125 70.21875 
L 18.3125 54.6875 
L 36.8125 54.6875 
L 36.8125 47.703125 
L 18.3125 47.703125 
L 18.3125 18.015625 
Q 18.3125 11.328125 20.140625 9.421875 
Q 21.96875 7.515625 27.59375 7.515625 
L 36.8125 7.515625 
L 36.8125 0 
L 27.59375 0 
Q 17.1875 0 13.234375 3.875 
Q 9.28125 7.765625 9.28125 18.015625 
L 9.28125 47.703125 
L 2.6875 47.703125 
L 2.6875 54.6875 
L 9.28125 54.6875 
L 9.28125 70.21875 
z
" id="DejaVuSans-74"/>
      <path d="M 30.609375 48.390625 
Q 23.390625 48.390625 19.1875 42.75 
Q 14.984375 37.109375 14.984375 27.296875 
Q 14.984375 17.484375 19.15625 11.84375 
Q 23.34375 6.203125 30.609375 6.203125 
Q 37.796875 6.203125 41.984375 11.859375 
Q 46.1875 17.53125 46.1875 27.296875 
Q 46.1875 37.015625 41.984375 42.703125 
Q 37.796875 48.390625 30.609375 48.390625 
z
M 30.609375 56 
Q 42.328125 56 49.015625 48.375 
Q 55.71875 40.765625 55.71875 27.296875 
Q 55.71875 13.875 49.015625 6.21875 
Q 42.328125 -1.421875 30.609375 -1.421875 
Q 18.84375 -1.421875 12.171875 6.21875 
Q 5.515625 13.875 5.515625 27.296875 
Q 5.515625 40.765625 12.171875 48.375 
Q 18.84375 56 30.609375 56 
z
" id="DejaVuSans-6f"/>
      <path d="M 48.78125 52.59375 
L 48.78125 44.1875 
Q 44.96875 46.296875 41.140625 47.34375 
Q 37.3125 48.390625 33.40625 48.390625 
Q 24.65625 48.390625 19.8125 42.84375 
Q 14.984375 37.3125 14.984375 27.296875 
Q 14.984375 17.28125 19.8125 11.734375 
Q 24.65625 6.203125 33.40625 6.203125 
Q 37.3125 6.203125 41.140625 7.25 
Q 44.96875 8.296875 48.78125 10.40625 
L 48.78125 2.09375 
Q 45.015625 0.34375 40.984375 -0.53125 
Q 36.96875 -1.421875 32.421875 -1.421875 
Q 20.0625 -1.421875 12.78125 6.34375 
Q 5.515625 14.109375 5.515625 27.296875 
Q 5.515625 40.671875 12.859375 48.328125 
Q 20.21875 56 33.015625 56 
Q 37.15625 56 41.109375 55.140625 
Q 45.0625 54.296875 48.78125 52.59375 
z
" id="DejaVuSans-63"/>
      <path d="M 9.078125 75.984375 
L 18.109375 75.984375 
L 18.109375 31.109375 
L 44.921875 54.6875 
L 56.390625 54.6875 
L 27.390625 29.109375 
L 57.625 0 
L 45.90625 0 
L 18.109375 26.703125 
L 18.109375 0 
L 9.078125 0 
z
" id="DejaVuSans-6b"/>
      <path id="DejaVuSans-20"/>
      <path d="M 18.109375 8.203125 
L 18.109375 -20.796875 
L 9.078125 -20.796875 
L 9.078125 54.6875 
L 18.109375 54.6875 
L 18.109375 46.390625 
Q 20.953125 51.265625 25.265625 53.625 
Q 29.59375 56 35.59375 56 
Q 45.5625 56 51.78125 48.09375 
Q 58.015625 40.1875 58.015625 27.296875 
Q 58.015625 14.40625 51.78125 6.484375 
Q 45.5625 -1.421875 35.59375 -1.421875 
Q 29.59375 -1.421875 25.265625 0.953125 
Q 20.953125 3.328125 18.109375 8.203125 
z
M 48.6875 27.296875 
Q 48.6875 37.203125 44.609375 42.84375 
Q 40.53125 48.484375 33.40625 48.484375 
Q 26.265625 48.484375 22.1875 42.84375 
Q 18.109375 37.203125 18.109375 27.296875 
Q 18.109375 17.390625 22.1875 11.75 
Q 26.265625 6.109375 33.40625 6.109375 
Q 40.53125 6.109375 44.609375 11.75 
Q 48.6875 17.390625 48.6875 27.296875 
z
" id="DejaVuSans-70"/>
      <path d="M 41.109375 46.296875 
Q 39.59375 47.171875 37.8125 47.578125 
Q 36.03125 48 33.890625 48 
Q 26.265625 48 22.1875 43.046875 
Q 18.109375 38.09375 18.109375 28.8125 
L 18.109375 0 
L 9.078125 0 
L 9.078125 54.6875 
L 18.109375 54.6875 
L 18.109375 46.1875 
Q 20.953125 51.171875 25.484375 53.578125 
Q 30.03125 56 36.53125 56 
Q 37.453125 56 38.578125 55.875 
Q 39.703125 55.765625 41.0625 55.515625 
z
" id="DejaVuSans-72"/>
     </defs>
     <g transform="translate(77.507812 259.485075)rotate(-90)scale(0.1 -0.1)">
      <use xlink:href="#DejaVuSans-53"/>
      <use x="63.476562" xlink:href="#DejaVuSans-74"/>
      <use x="102.685547" xlink:href="#DejaVuSans-6f"/>
      <use x="163.867188" xlink:href="#DejaVuSans-63"/>
      <use x="218.847656" xlink:href="#DejaVuSans-6b"/>
      <use x="276.757812" xlink:href="#DejaVuSans-20"/>
      <use x="308.544922" xlink:href="#DejaVuSans-70"/>
      <use x="372.021484" xlink:href="#DejaVuSans-72"/>
      <use x="413.134766" xlink:href="#DejaVuSans-69"/>
      <use x="440.917969" xlink:href="#DejaVuSans-63"/>
      <use x="495.898438" xlink:href="#DejaVuSans-65"/>
     </g>
    </g>
   </g>
   <g id="line2d_18">
    <path clip-path="url(#p8629c66a34)" d="M 156.894545 309.081328 
L 158.784658 313.773757 
L 160.67477 309.740241 
L 164.454994 286.079269 
L 166.345106 277.289245 
L 168.235218 273.609277 
L 170.12533 274.839898 
L 172.015442 272.738359 
L 173.905554 253.333932 
L 175.795666 252.246346 
L 177.685778 245.21194 
L 179.57589 237.144286 
L 181.466002 236.236873 
L 183.356115 192.034006 
L 185.246227 125.86869 
L 187.136339 143.26583 
L 189.026451 168.905242 
L 190.916563 164.226614 
L 192.806675 128.727001 
L 194.696787 121.286615 
L 196.586899 138.201594 
L 198.477011 134.358654 
L 200.367123 110.46 
L 202.257235 73.269469 
L 204.147347 79.230258 
L 206.03746 81.236115 
L 207.927572 111.995344 
L 209.817684 134.503389 
L 211.707796 152.095104 
L 213.597908 193.840356 
L 215.48802 178.313664 
L 217.378132 191.188123 
L 219.268244 190.334177 
L 221.158356 149.444592 
L 223.048468 156.674216 
L 224.93858 178.275035 
L 226.828692 178.408952 
L 228.718804 217.875248 
L 230.608917 189.903392 
L 232.499029 198.510922 
L 234.389141 170.727942 
L 236.279253 162.188531 
L 238.169365 161.687927 
L 240.059477 124.027131 
L 241.949589 119.363984 
L 243.839701 139.444318 
L 245.729813 166.015141 
L 247.619925 176.7972 
L 249.510037 167.199486 
L 251.400149 201.41441 
L 253.290262 190.100744 
L 255.180374 181.550101 
L 257.070486 194.399318 
L 258.960598 194.484845 
L 260.85071 244.39938 
L 262.740822 246.941466 
L 264.630934 246.669425 
L 266.521046 239.320514 
L 268.411158 212.545333 
L 270.30127 238.722922 
L 272.191382 254.33027 
L 274.081494 253.497111 
L 275.971606 241.30915 
L 277.861719 246.661985 
L 279.751831 248.179942 
L 281.641943 240.624145 
L 283.532055 234.101803 
L 285.422167 245.421603 
L 287.312279 269.336173 
L 289.202391 266.801091 
L 291.092503 290.401799 
L 292.982615 295.534361 
L 294.872727 287.504279 
L 296.762839 309.43042 
L 298.652951 336.6279 
L 300.543064 320.397521 
L 302.433176 322.678166 
L 304.323288 308.555896 
L 306.2134 299.270138 
L 308.103512 301.976046 
L 309.993624 312.262173 
L 311.883736 294.721594 
L 313.773848 302.498721 
L 315.66396 282.530669 
L 317.554072 270.899121 
L 319.444184 267.610252 
L 321.334296 248.331246 
L 323.224408 262.742333 
L 325.114521 246.525954 
L 327.004633 244.944976 
L 328.894745 261.393939 
L 330.784857 274.841804 
L 332.674969 267.890811 
L 334.565081 277.860082 
L 336.455193 279.889254 
L 338.345305 264.68662 
L 340.235417 258.993832 
L 342.125529 264.518115 
L 344.015641 251.893006 
L 345.905753 249.479096 
L 347.795866 240.518661 
L 349.685978 239.699946 
L 351.57609 241.049833 
L 353.466202 256.008215 
L 355.356314 273.131386 
L 357.246426 286.114292 
L 359.136538 287.472654 
L 361.02665 297.138694 
L 362.916762 281.292608 
L 364.806874 289.817388 
L 366.696986 289.438577 
L 368.587098 309.469257 
L 370.47721 308.371475 
L 372.367323 308.04721 
L 374.257435 316.547577 
L 376.147547 309.48453 
L 378.037659 300.833936 
L 379.927771 294.522956 
L 381.817883 294.717345 
L 383.707995 298.672754 
L 385.598107 294.205074 
L 387.488219 302.420219 
L 389.378331 304.029423 
L 391.268443 310.828251 
L 393.158555 318.123249 
L 395.048667 314.911215 
L 396.93878 333.016269 
L 398.828892 338.382471 
L 400.719004 336.47214 
L 402.609116 338.768058 
L 404.499228 333.694715 
L 406.38934 326.062519 
L 408.279452 339.194181 
L 410.169564 339.725767 
L 412.059676 343.027578 
L 413.949788 337.035983 
L 415.8399 334.219514 
L 417.730012 339.7453 
L 419.620125 338.014924 
L 421.510237 335.766111 
L 423.400349 315.591349 
L 425.290461 316.206546 
L 427.180573 313.58001 
L 429.070685 306.063029 
L 430.960797 312.36488 
L 432.850909 315.720376 
L 434.741021 310.027369 
L 436.631133 307.652711 
L 438.521245 295.443528 
L 440.411357 294.197862 
L 442.301469 296.582903 
L 444.191582 293.518556 
L 446.081694 278.879548 
L 447.971806 295.519502 
L 449.861918 286.703387 
L 451.75203 294.14226 
L 453.642142 285.410366 
L 455.532254 284.192076 
L 457.422366 287.568357 
L 459.312478 291.196536 
L 461.20259 287.90916 
L 463.092702 277.000002 
L 464.982814 277.973835 
L 466.872927 274.874051 
L 468.763039 279.170283 
L 470.653151 284.834431 
L 472.543263 288.674407 
L 474.433375 286.013491 
L 476.323487 292.152774 
L 478.213599 305.127391 
L 480.103711 303.700267 
L 481.993823 299.002117 
L 483.883935 299.778389 
L 485.774047 303.868129 
L 487.664159 306.785399 
L 489.554271 312.550141 
L 491.444384 308.796748 
L 493.334496 308.768522 
L 495.224608 302.742143 
L 497.11472 305.151803 
L 499.004832 314.211548 
L 500.894944 324.545837 
L 502.785056 322.869157 
L 504.675168 325.191177 
L 506.56528 327.74408 
L 508.455392 327.591926 
L 510.345504 332.756102 
L 512.235616 325.204119 
L 514.125729 326.938525 
L 516.015841 324.631354 
L 517.905953 324.019981 
L 519.796065 321.628143 
L 521.686177 320.005355 
L 523.576289 324.597833 
L 525.466401 321.922265 
L 527.356513 321.234908 
L 529.246625 320.415562 
L 531.136737 321.961309 
L 533.026849 324.376285 
L 534.916961 340.080797 
L 536.807073 337.667738 
L 538.697186 344.68113 
L 540.587298 349.912358 
L 542.47741 342.841468 
L 544.367522 348.0814 
L 546.257634 345.823675 
L 548.147746 346.785426 
L 550.037858 341.336246 
L 551.92797 340.769222 
L 553.818082 340.345005 
L 555.708194 341.207219 
L 557.598306 355.407794 
L 559.488418 352.9697 
L 561.378531 353.15178 
L 563.268643 350.97406 
L 565.158755 354.542192 
L 567.048867 353.495774 
L 568.938979 359.241616 
L 570.829091 352.174963 
L 572.719203 348.32077 
L 574.609315 349.227768 
L 576.499427 343.415072 
L 578.389539 345.710565 
L 580.279651 343.984437 
L 582.169763 345.150753 
L 584.059875 343.724271 
L 585.949988 340.4127 
L 587.8401 341.486918 
L 589.730212 342.306483 
L 591.620324 349.987907 
L 593.510436 348.131271 
L 595.400548 351.117085 
L 597.29066 351.627461 
L 599.180772 350.80599 
L 601.070884 348.770031 
L 602.960996 340.78492 
L 604.851108 328.344646 
L 606.74122 327.142883 
L 608.631333 325.154247 
L 610.521445 328.192481 
L 612.411557 326.675809 
L 614.301669 326.81926 
L 616.191781 320.042067 
L 618.081893 305.658148 
L 621.862117 315.392504 
L 623.752229 310.176767 
L 625.642341 309.159415 
L 627.532453 309.45906 
L 629.422565 310.321067 
L 631.312677 319.65478 
L 633.20279 322.314857 
L 635.092902 323.769782 
L 636.983014 326.416907 
L 638.873126 334.899224 
L 640.763238 334.375492 
L 642.65335 336.429698 
L 644.543462 341.150985 
L 646.433574 350.450742 
L 648.323686 344.971647 
L 650.213798 353.254269 
L 652.10391 351.353285 
L 653.994022 349.658129 
L 657.774247 352.263671 
L 659.664359 350.680776 
L 661.554471 349.628422 
L 663.444583 343.954512 
L 665.334695 347.889767 
L 667.224807 345.841923 
L 669.114919 350.768428 
L 671.005031 346.078547 
L 672.895143 348.730127 
L 676.675367 341.455511 
L 678.565479 340.590323 
L 680.455592 341.208069 
L 682.345704 337.063152 
L 684.235816 333.339685 
L 686.125928 334.183651 
L 688.01604 335.305193 
L 689.906152 334.706751 
L 691.796264 330.961213 
L 693.686376 328.885993 
L 695.576488 329.548098 
L 697.4666 327.429369 
L 699.356712 341.537847 
L 701.246824 345.562234 
L 703.136936 347.733157 
L 705.027049 352.250937 
L 706.917161 351.214497 
L 708.807273 349.615262 
L 710.697385 350.228345 
L 712.587497 349.346816 
L 714.477609 346.055627 
L 716.367721 346.199502 
L 718.257833 345.408163 
L 720.147945 345.837685 
L 722.038057 350.95432 
L 723.928169 349.148189 
L 725.818281 348.036408 
L 727.708394 345.762768 
L 729.598506 340.328032 
L 731.488618 341.292954 
L 733.37873 341.587294 
L 735.268842 344.116863 
L 737.158954 347.210689 
L 739.049066 346.683133 
L 740.939178 341.939568 
L 742.82929 343.016118 
L 744.719402 343.687766 
L 746.609514 343.26186 
L 748.499626 343.873876 
L 750.389738 345.349173 
L 752.279851 346.046291 
L 754.169963 344.191769 
L 756.060075 343.069595 
L 757.950187 343.980832 
L 759.840299 343.736363 
L 761.730411 342.704805 
L 763.620523 343.092723 
L 765.510635 344.169066 
L 767.400747 352.054848 
L 769.290859 351.150191 
L 773.071083 350.606295 
L 774.961196 343.49805 
L 776.851308 344.127048 
L 778.74142 344.268167 
L 780.631532 346.115042 
L 782.521644 346.541382 
L 786.301868 345.680008 
L 788.19198 346.222215 
L 790.082092 346.512732 
L 791.972204 346.387736 
L 793.862316 346.679527 
L 795.752428 346.797518 
L 797.64254 346.522493 
L 799.532653 346.51039 
L 801.422765 349.828541 
L 803.312877 349.940377 
L 807.093101 348.408421 
L 808.983213 348.125116 
L 810.873325 348.509222 
L 812.763437 346.588705 
L 814.653549 347.30004 
L 818.433773 345.232881 
L 820.323885 347.034132 
L 822.213998 348.478654 
L 824.10411 348.088187 
L 825.994222 347.837988 
L 829.774446 349.302467 
L 831.664558 362.006742 
L 833.55467 363.980519 
L 835.444782 365.265032 
L 837.334894 365.668659 
L 839.225006 364.664694 
L 841.115118 381.761318 
L 843.00523 389.566681 
L 844.895342 386.357403 
L 846.785455 392.1372 
L 846.785455 392.1372 
" style="fill:none;stroke:#ff0000;stroke-linecap:square;stroke-width:1.5;"/>
   </g>
   <g id="line2d_19">
    <path clip-path="url(#p8629c66a34)" d="M 156.894545 308.631269 
L 158.784658 313.368773 
L 160.67477 309.296689 
L 164.454994 285.374846 
L 166.345106 276.476312 
L 168.235218 272.749549 
L 170.12533 273.9959 
L 172.015442 271.867482 
L 173.905554 252.207033 
L 175.795666 251.104817 
L 177.685778 243.975475 
L 179.57589 235.798751 
L 181.466002 234.879049 
L 183.356115 190.103646 
L 185.246227 123.261138 
L 187.136339 140.811281 
L 189.026451 166.709057 
L 190.916563 161.980361 
L 192.806675 126.143364 
L 194.696787 118.641635 
L 196.586899 135.700645 
L 198.477011 131.823594 
L 200.367123 107.731006 
L 202.257235 71.0892 
L 204.147347 76.894726 
L 206.03746 78.849396 
L 207.927572 109.277914 
L 209.817684 131.969572 
L 211.707796 149.725068 
L 213.597908 191.931942 
L 215.48802 176.222031 
L 217.378132 189.247525 
L 219.268244 188.38328 
L 221.158356 147.048671 
L 223.048468 154.349875 
L 224.93858 176.183008 
L 226.828692 176.318417 
L 228.718804 216.272282 
L 230.608917 187.947354 
L 232.499029 196.659954 
L 234.389141 168.551652 
L 236.279253 159.92087 
L 238.169365 159.415002 
L 240.059477 121.404368 
L 241.949589 116.703628 
L 243.839701 136.954663 
L 245.729813 163.787871 
L 247.619925 174.688386 
L 249.510037 164.984857 
L 251.400149 199.599688 
L 253.290262 188.147049 
L 255.180374 179.495605 
L 257.070486 192.497722 
L 258.960598 192.584265 
L 260.85071 243.151911 
L 262.740822 245.728398 
L 264.630934 245.452688 
L 266.521046 238.004365 
L 268.411158 210.872694 
L 270.30127 237.398712 
L 272.191382 253.216739 
L 274.081494 252.372409 
L 275.971606 240.01988 
L 277.861719 245.445104 
L 279.751831 246.983577 
L 281.641943 239.325632 
L 283.532055 232.715214 
L 285.422167 244.187977 
L 287.312279 268.42132 
L 289.202391 265.853164 
L 291.092503 289.74875 
L 292.982615 294.940396 
L 294.872727 286.816932 
L 296.762839 308.983801 
L 298.652951 336.398684 
L 300.543064 320.051403 
L 302.433176 322.350896 
L 304.323288 308.100615 
L 306.2134 298.717724 
L 308.103512 301.452894 
L 309.993624 311.842972 
L 311.883736 294.118448 
L 313.773848 301.981102 
L 315.66396 281.783016 
L 317.554072 270.004578 
L 319.444184 266.672935 
L 321.334296 247.136933 
L 323.224408 261.74098 
L 325.114521 245.307207 
L 327.004633 243.704905 
L 328.894745 260.374763 
L 330.784857 273.997848 
L 332.674969 266.957142 
L 334.565081 277.054299 
L 336.455193 279.108899 
L 338.345305 263.710964 
L 340.235417 257.94272 
L 342.125529 263.540221 
L 344.015641 250.746689 
L 345.905753 248.300264 
L 347.795866 239.218718 
L 349.685978 238.388958 
L 351.57609 239.757061 
L 353.466202 254.91721 
L 355.356314 272.265566 
L 357.246426 285.410263 
L 359.136538 286.784935 
L 361.02665 296.562718 
L 362.916762 280.529661 
L 364.806874 289.1575 
L 366.696986 288.774213 
L 368.587098 309.02299 
L 370.47721 307.91437 
L 372.367323 307.586872 
L 374.257435 316.167958 
L 376.147547 309.03845 
L 378.037659 300.298495 
L 379.927771 293.917552 
L 381.817883 294.114117 
L 383.707995 298.113791 
L 385.598107 293.596022 
L 387.488219 301.901751 
L 389.378331 303.527927 
L 391.268443 310.395269 
L 393.158555 317.757609 
L 395.048667 314.516758 
L 396.93878 332.764682 
L 398.828892 338.163296 
L 400.719004 336.241971 
L 402.609116 338.551007 
L 404.499228 333.447511 
L 406.38934 325.761858 
L 408.279452 338.979462 
L 410.169564 339.513908 
L 412.059676 342.832308 
L 413.949788 336.80914 
L 415.8399 333.975595 
L 417.730012 339.533554 
L 419.620125 337.793687 
L 421.510237 335.531756 
L 423.400349 315.203099 
L 425.290461 315.823881 
L 427.180573 313.173202 
L 429.070685 305.582589 
L 430.960797 311.946653 
L 432.850909 315.333296 
L 434.741021 309.586615 
L 436.631133 307.188374 
L 438.521245 294.848527 
L 440.411357 293.588727 
L 442.301469 296.00075 
L 444.191582 292.90165 
L 446.081694 278.086572 
L 447.971806 294.925392 
L 449.861918 286.006424 
L 451.75203 293.532503 
L 453.642142 284.697861 
L 455.532254 283.464753 
L 457.422366 286.881798 
L 459.312478 290.552751 
L 461.20259 287.226642 
L 463.092702 276.183402 
L 464.982814 277.169503 
L 466.872927 274.030509 
L 468.763039 278.380954 
L 470.653151 284.114942 
L 472.543263 288.000987 
L 474.433375 285.308239 
L 476.323487 291.520139 
L 478.213599 304.637314 
L 480.103711 303.195352 
L 481.993823 298.44676 
L 483.883935 299.231509 
L 485.774047 303.364955 
L 487.664159 306.312316 
L 489.554271 312.133654 
L 491.444384 308.34385 
L 493.334496 308.315355 
L 495.224608 302.227094 
L 497.11472 304.661996 
L 499.004832 313.810646 
L 500.894944 324.233457 
L 502.785056 322.54343 
L 504.675168 324.883832 
L 506.56528 327.455988 
L 508.455392 327.302715 
L 510.345504 332.502847 
L 512.235616 324.896899 
L 514.125729 326.644475 
L 516.015841 324.319658 
L 517.905953 323.703477 
L 519.796065 321.292303 
L 521.686177 319.65592 
L 523.576289 324.285857 
L 525.466401 321.58883 
L 527.356513 320.895794 
L 529.246625 320.069588 
L 531.136737 321.628194 
L 533.026849 324.062599 
L 534.916961 339.870793 
L 536.807073 337.444522 
L 538.697186 344.493383 
L 540.587298 349.745003 
L 542.47741 342.645296 
L 544.367522 347.907527 
L 546.257634 345.640829 
L 548.147746 346.606548 
L 550.037858 341.132717 
L 551.92797 340.562833 
L 553.818082 340.136379 
L 555.708194 341.003048 
L 557.598306 355.255837 
L 559.488418 352.811692 
L 561.378531 352.994279 
L 563.268643 350.810145 
L 565.158755 354.388245 
L 567.048867 353.339195 
L 568.938979 359.096622 
L 570.829091 352.014685 
L 572.719203 348.147778 
L 574.609315 349.058019 
L 576.499427 343.221625 
L 578.389539 345.527242 
L 580.279651 343.793571 
L 582.169763 344.965067 
L 584.059875 343.532223 
L 585.949988 340.204436 
L 587.8401 341.284156 
L 589.730212 342.107721 
L 591.620324 349.82079 
L 593.510436 347.957585 
L 595.400548 350.953647 
L 597.29066 351.465577 
L 599.180772 350.641536 
L 601.070884 348.598687 
L 602.960996 340.578614 
L 604.851108 328.060937 
L 606.74122 326.850325 
L 608.631333 324.846602 
L 610.521445 327.907664 
L 612.411557 326.37978 
L 614.301669 326.524298 
L 616.191781 319.692943 
L 618.081893 305.173543 
L 621.862117 315.002461 
L 623.752229 309.737464 
L 625.642341 308.710123 
L 627.532453 309.012711 
L 629.422565 309.883173 
L 631.312677 319.302372 
L 633.20279 321.984634 
L 635.092902 323.451289 
L 636.983014 326.118909 
L 638.873126 334.659594 
L 640.763238 334.132578 
L 642.65335 336.19929 
L 644.543462 340.946524 
L 646.433574 350.285159 
L 648.323686 344.785164 
L 650.213798 353.097038 
L 652.10391 351.190561 
L 653.994022 349.489883 
L 657.774247 352.103673 
L 659.664359 350.515939 
L 661.554471 349.460072 
L 663.444583 343.763532 
L 665.334695 347.715127 
L 667.224807 345.659159 
L 669.114919 350.60385 
L 671.005031 345.896779 
L 672.895143 348.558607 
L 676.675367 341.252584 
L 678.565479 340.383002 
L 680.455592 341.003877 
L 682.345704 336.836465 
L 684.235816 333.090201 
L 686.125928 333.939525 
L 688.01604 335.068029 
L 689.906152 334.46593 
L 691.796264 330.695948 
L 693.686376 328.606201 
L 695.576488 329.273 
L 697.4666 327.138945 
L 699.356712 341.335355 
L 701.246824 345.378279 
L 703.136936 347.557968 
L 705.027049 352.090907 
L 706.917161 351.051349 
L 708.807273 349.446891 
L 710.697385 350.062036 
L 712.587497 349.177513 
L 714.477609 345.873755 
L 716.367721 346.018241 
L 718.257833 345.223566 
L 720.147945 345.654932 
L 722.038057 350.790343 
L 723.928169 348.978191 
L 725.818281 347.86237 
L 727.708394 345.579673 
L 729.598506 340.119344 
L 731.488618 341.089228 
L 733.37873 341.38503 
L 735.268842 343.926608 
L 737.158954 347.033469 
L 739.049066 346.503841 
L 740.939178 341.739034 
L 742.82929 342.820806 
L 744.719402 343.495563 
L 746.609514 343.067668 
L 748.499626 343.682554 
L 750.389738 345.164337 
L 752.279851 345.864398 
L 754.169963 344.001845 
L 756.060075 342.874543 
L 757.950187 343.789945 
L 759.840299 343.544367 
L 761.730411 342.508001 
L 763.620523 342.897764 
L 765.510635 343.97906 
L 767.400747 351.894259 
L 769.290859 350.986836 
L 773.071083 350.441209 
L 774.961196 343.304976 
L 776.851308 343.936866 
L 778.74142 344.078586 
L 780.631532 345.933408 
L 782.521644 346.3615 
L 786.301868 345.496581 
L 788.19198 346.041027 
L 790.082092 346.332745 
L 791.972204 346.207221 
L 793.862316 346.500235 
L 795.752428 346.618682 
L 797.64254 346.342527 
L 799.532653 346.330393 
L 801.422765 349.660875 
L 803.312877 349.773105 
L 807.093101 348.235771 
L 808.983213 347.95142 
L 810.873325 348.336935 
L 812.763437 346.40903 
L 814.653549 347.123162 
L 818.433773 345.047558 
L 820.323885 346.856229 
L 822.213998 348.306222 
L 824.10411 347.914314 
L 825.994222 347.663214 
L 829.774446 349.133009 
L 831.664558 361.864763 
L 833.55467 363.839597 
L 835.444782 365.124338 
L 837.334894 365.527976 
L 839.225006 364.523938 
L 841.115118 381.587683 
L 843.00523 389.352677 
L 844.895342 386.162039 
L 846.785455 391.906244 
L 846.785455 391.906244 
" style="fill:none;stroke:#0000ff;stroke-linecap:square;stroke-width:1.5;"/>
   </g>
   <g id="patch_3">
    <path d="M 122.4 408.1896 
L 122.4 55.0368 
" style="fill:none;stroke:#000000;stroke-linecap:square;stroke-linejoin:miter;stroke-width:0.8;"/>
   </g>
   <g id="patch_4">
    <path d="M 881.28 408.1896 
L 881.28 55.0368 
" style="fill:none;stroke:#000000;stroke-linecap:square;stroke-linejoin:miter;stroke-width:0.8;"/>
   </g>
   <g id="patch_5">
    <path d="M 122.4 408.1896 
L 881.28 408.1896 
" style="fill:none;stroke:#000000;stroke-linecap:square;stroke-linejoin:miter;stroke-width:0.8;"/>
   </g>
   <g id="patch_6">
    <path d="M 122.4 55.0368 
L 881.28 55.0368 
" style="fill:none;stroke:#000000;stroke-linecap:square;stroke-linejoin:miter;stroke-width:0.8;"/>
   </g>
   <g id="text_20">
    <!-- BTC  Stock price prediction -->
    <defs>
     <path d="M 19.671875 34.8125 
L 19.671875 8.109375 
L 35.5 8.109375 
Q 43.453125 8.109375 47.28125 11.40625 
Q 51.125 14.703125 51.125 21.484375 
Q 51.125 28.328125 47.28125 31.5625 
Q 43.453125 34.8125 35.5 34.8125 
z
M 19.671875 64.796875 
L 19.671875 42.828125 
L 34.28125 42.828125 
Q 41.5 42.828125 45.03125 45.53125 
Q 48.578125 48.25 48.578125 53.8125 
Q 48.578125 59.328125 45.03125 62.0625 
Q 41.5 64.796875 34.28125 64.796875 
z
M 9.8125 72.90625 
L 35.015625 72.90625 
Q 46.296875 72.90625 52.390625 68.21875 
Q 58.5 63.53125 58.5 54.890625 
Q 58.5 48.1875 55.375 44.234375 
Q 52.25 40.28125 46.1875 39.3125 
Q 53.46875 37.75 57.5 32.78125 
Q 61.53125 27.828125 61.53125 20.40625 
Q 61.53125 10.640625 54.890625 5.3125 
Q 48.25 0 35.984375 0 
L 9.8125 0 
z
" id="DejaVuSans-42"/>
     <path d="M 64.40625 67.28125 
L 64.40625 56.890625 
Q 59.421875 61.53125 53.78125 63.8125 
Q 48.140625 66.109375 41.796875 66.109375 
Q 29.296875 66.109375 22.65625 58.46875 
Q 16.015625 50.828125 16.015625 36.375 
Q 16.015625 21.96875 22.65625 14.328125 
Q 29.296875 6.6875 41.796875 6.6875 
Q 48.140625 6.6875 53.78125 8.984375 
Q 59.421875 11.28125 64.40625 15.921875 
L 64.40625 5.609375 
Q 59.234375 2.09375 53.4375 0.328125 
Q 47.65625 -1.421875 41.21875 -1.421875 
Q 24.65625 -1.421875 15.125 8.703125 
Q 5.609375 18.84375 5.609375 36.375 
Q 5.609375 53.953125 15.125 64.078125 
Q 24.65625 74.21875 41.21875 74.21875 
Q 47.75 74.21875 53.53125 72.484375 
Q 59.328125 70.75 64.40625 67.28125 
z
" id="DejaVuSans-43"/>
     <path d="M 45.40625 46.390625 
L 45.40625 75.984375 
L 54.390625 75.984375 
L 54.390625 0 
L 45.40625 0 
L 45.40625 8.203125 
Q 42.578125 3.328125 38.25 0.953125 
Q 33.9375 -1.421875 27.875 -1.421875 
Q 17.96875 -1.421875 11.734375 6.484375 
Q 5.515625 14.40625 5.515625 27.296875 
Q 5.515625 40.1875 11.734375 48.09375 
Q 17.96875 56 27.875 56 
Q 33.9375 56 38.25 53.625 
Q 42.578125 51.265625 45.40625 46.390625 
z
M 14.796875 27.296875 
Q 14.796875 17.390625 18.875 11.75 
Q 22.953125 6.109375 30.078125 6.109375 
Q 37.203125 6.109375 41.296875 11.75 
Q 45.40625 17.390625 45.40625 27.296875 
Q 45.40625 37.203125 41.296875 42.84375 
Q 37.203125 48.484375 30.078125 48.484375 
Q 22.953125 48.484375 18.875 42.84375 
Q 14.796875 37.203125 14.796875 27.296875 
z
" id="DejaVuSans-64"/>
     <path d="M 54.890625 33.015625 
L 54.890625 0 
L 45.90625 0 
L 45.90625 32.71875 
Q 45.90625 40.484375 42.875 44.328125 
Q 39.84375 48.1875 33.796875 48.1875 
Q 26.515625 48.1875 22.3125 43.546875 
Q 18.109375 38.921875 18.109375 30.90625 
L 18.109375 0 
L 9.078125 0 
L 9.078125 54.6875 
L 18.109375 54.6875 
L 18.109375 46.1875 
Q 21.34375 51.125 25.703125 53.5625 
Q 30.078125 56 35.796875 56 
Q 45.21875 56 50.046875 50.171875 
Q 54.890625 44.34375 54.890625 33.015625 
z
" id="DejaVuSans-6e"/>
    </defs>
    <g transform="translate(420.473437 49.0368)scale(0.12 -0.12)">
     <use xlink:href="#DejaVuSans-42"/>
     <use x="68.603516" xlink:href="#DejaVuSans-54"/>
     <use x="129.609375" xlink:href="#DejaVuSans-43"/>
     <use x="199.433594" xlink:href="#DejaVuSans-20"/>
     <use x="231.220703" xlink:href="#DejaVuSans-20"/>
     <use x="263.007812" xlink:href="#DejaVuSans-53"/>
     <use x="326.484375" xlink:href="#DejaVuSans-74"/>
     <use x="365.693359" xlink:href="#DejaVuSans-6f"/>
     <use x="426.875" xlink:href="#DejaVuSans-63"/>
     <use x="481.855469" xlink:href="#DejaVuSans-6b"/>
     <use x="539.765625" xlink:href="#DejaVuSans-20"/>
     <use x="571.552734" xlink:href="#DejaVuSans-70"/>
     <use x="635.029297" xlink:href="#DejaVuSans-72"/>
     <use x="676.142578" xlink:href="#DejaVuSans-69"/>
     <use x="703.925781" xlink:href="#DejaVuSans-63"/>
     <use x="758.90625" xlink:href="#DejaVuSans-65"/>
     <use x="820.429688" xlink:href="#DejaVuSans-20"/>
     <use x="852.216797" xlink:href="#DejaVuSans-70"/>
     <use x="915.693359" xlink:href="#DejaVuSans-72"/>
     <use x="956.775391" xlink:href="#DejaVuSans-65"/>
     <use x="1018.298828" xlink:href="#DejaVuSans-64"/>
     <use x="1081.775391" xlink:href="#DejaVuSans-69"/>
     <use x="1109.558594" xlink:href="#DejaVuSans-63"/>
     <use x="1164.539062" xlink:href="#DejaVuSans-74"/>
     <use x="1203.748047" xlink:href="#DejaVuSans-69"/>
     <use x="1231.53125" xlink:href="#DejaVuSans-6f"/>
     <use x="1292.712891" xlink:href="#DejaVuSans-6e"/>
    </g>
   </g>
   <g id="legend_1">
    <g id="patch_7">
     <path d="M 733.983125 92.39305 
L 874.28 92.39305 
Q 876.28 92.39305 876.28 90.39305 
L 876.28 62.0368 
Q 876.28 60.0368 874.28 60.0368 
L 733.983125 60.0368 
Q 731.983125 60.0368 731.983125 62.0368 
L 731.983125 90.39305 
Q 731.983125 92.39305 733.983125 92.39305 
z
" style="fill:#ffffff;opacity:0.8;stroke:#cccccc;stroke-linejoin:miter;"/>
    </g>
    <g id="line2d_20">
     <path d="M 735.983125 68.135237 
L 755.983125 68.135237 
" style="fill:none;stroke:#ff0000;stroke-linecap:square;stroke-width:1.5;"/>
    </g>
    <g id="line2d_21"/>
    <g id="text_21">
     <!--  Real stock price -->
     <defs>
      <path d="M 44.390625 34.1875 
Q 47.5625 33.109375 50.5625 29.59375 
Q 53.5625 26.078125 56.59375 19.921875 
L 66.609375 0 
L 56 0 
L 46.6875 18.703125 
Q 43.0625 26.03125 39.671875 28.421875 
Q 36.28125 30.8125 30.421875 30.8125 
L 19.671875 30.8125 
L 19.671875 0 
L 9.8125 0 
L 9.8125 72.90625 
L 32.078125 72.90625 
Q 44.578125 72.90625 50.734375 67.671875 
Q 56.890625 62.453125 56.890625 51.90625 
Q 56.890625 45.015625 53.6875 40.46875 
Q 50.484375 35.9375 44.390625 34.1875 
z
M 19.671875 64.796875 
L 19.671875 38.921875 
L 32.078125 38.921875 
Q 39.203125 38.921875 42.84375 42.21875 
Q 46.484375 45.515625 46.484375 51.90625 
Q 46.484375 58.296875 42.84375 61.546875 
Q 39.203125 64.796875 32.078125 64.796875 
z
" id="DejaVuSans-52"/>
      <path d="M 34.28125 27.484375 
Q 23.390625 27.484375 19.1875 25 
Q 14.984375 22.515625 14.984375 16.5 
Q 14.984375 11.71875 18.140625 8.90625 
Q 21.296875 6.109375 26.703125 6.109375 
Q 34.1875 6.109375 38.703125 11.40625 
Q 43.21875 16.703125 43.21875 25.484375 
L 43.21875 27.484375 
z
M 52.203125 31.203125 
L 52.203125 0 
L 43.21875 0 
L 43.21875 8.296875 
Q 40.140625 3.328125 35.546875 0.953125 
Q 30.953125 -1.421875 24.3125 -1.421875 
Q 15.921875 -1.421875 10.953125 3.296875 
Q 6 8.015625 6 15.921875 
Q 6 25.140625 12.171875 29.828125 
Q 18.359375 34.515625 30.609375 34.515625 
L 43.21875 34.515625 
L 43.21875 35.40625 
Q 43.21875 41.609375 39.140625 45 
Q 35.0625 48.390625 27.6875 48.390625 
Q 23 48.390625 18.546875 47.265625 
Q 14.109375 46.140625 10.015625 43.890625 
L 10.015625 52.203125 
Q 14.9375 54.109375 19.578125 55.046875 
Q 24.21875 56 28.609375 56 
Q 40.484375 56 46.34375 49.84375 
Q 52.203125 43.703125 52.203125 31.203125 
z
" id="DejaVuSans-61"/>
      <path d="M 9.421875 75.984375 
L 18.40625 75.984375 
L 18.40625 0 
L 9.421875 0 
z
" id="DejaVuSans-6c"/>
      <path d="M 44.28125 53.078125 
L 44.28125 44.578125 
Q 40.484375 46.53125 36.375 47.5 
Q 32.28125 48.484375 27.875 48.484375 
Q 21.1875 48.484375 17.84375 46.4375 
Q 14.5 44.390625 14.5 40.28125 
Q 14.5 37.15625 16.890625 35.375 
Q 19.28125 33.59375 26.515625 31.984375 
L 29.59375 31.296875 
Q 39.15625 29.25 43.1875 25.515625 
Q 47.21875 21.78125 47.21875 15.09375 
Q 47.21875 7.46875 41.1875 3.015625 
Q 35.15625 -1.421875 24.609375 -1.421875 
Q 20.21875 -1.421875 15.453125 -0.5625 
Q 10.6875 0.296875 5.421875 2 
L 5.421875 11.28125 
Q 10.40625 8.6875 15.234375 7.390625 
Q 20.0625 6.109375 24.8125 6.109375 
Q 31.15625 6.109375 34.5625 8.28125 
Q 37.984375 10.453125 37.984375 14.40625 
Q 37.984375 18.0625 35.515625 20.015625 
Q 33.0625 21.96875 24.703125 23.78125 
L 21.578125 24.515625 
Q 13.234375 26.265625 9.515625 29.90625 
Q 5.8125 33.546875 5.8125 39.890625 
Q 5.8125 47.609375 11.28125 51.796875 
Q 16.75 56 26.8125 56 
Q 31.78125 56 36.171875 55.265625 
Q 40.578125 54.546875 44.28125 53.078125 
z
" id="DejaVuSans-73"/>
     </defs>
     <g transform="translate(763.983125 71.635237)scale(0.1 -0.1)">
      <use xlink:href="#DejaVuSans-20"/>
      <use x="31.787109" xlink:href="#DejaVuSans-52"/>
      <use x="101.207031" xlink:href="#DejaVuSans-65"/>
      <use x="162.730469" xlink:href="#DejaVuSans-61"/>
      <use x="224.009766" xlink:href="#DejaVuSans-6c"/>
      <use x="251.792969" xlink:href="#DejaVuSans-20"/>
      <use x="283.580078" xlink:href="#DejaVuSans-73"/>
      <use x="335.679688" xlink:href="#DejaVuSans-74"/>
      <use x="374.888672" xlink:href="#DejaVuSans-6f"/>
      <use x="436.070312" xlink:href="#DejaVuSans-63"/>
      <use x="491.050781" xlink:href="#DejaVuSans-6b"/>
      <use x="548.960938" xlink:href="#DejaVuSans-20"/>
      <use x="580.748047" xlink:href="#DejaVuSans-70"/>
      <use x="644.224609" xlink:href="#DejaVuSans-72"/>
      <use x="685.337891" xlink:href="#DejaVuSans-69"/>
      <use x="713.121094" xlink:href="#DejaVuSans-63"/>
      <use x="768.101562" xlink:href="#DejaVuSans-65"/>
     </g>
    </g>
    <g id="line2d_22">
     <path d="M 735.983125 82.813362 
L 755.983125 82.813362 
" style="fill:none;stroke:#0000ff;stroke-linecap:square;stroke-width:1.5;"/>
    </g>
    <g id="line2d_23"/>
    <g id="text_22">
     <!--  Predicted stock price -->
     <defs>
      <path d="M 19.671875 64.796875 
L 19.671875 37.40625 
L 32.078125 37.40625 
Q 38.96875 37.40625 42.71875 40.96875 
Q 46.484375 44.53125 46.484375 51.125 
Q 46.484375 57.671875 42.71875 61.234375 
Q 38.96875 64.796875 32.078125 64.796875 
z
M 9.8125 72.90625 
L 32.078125 72.90625 
Q 44.34375 72.90625 50.609375 67.359375 
Q 56.890625 61.8125 56.890625 51.125 
Q 56.890625 40.328125 50.609375 34.8125 
Q 44.34375 29.296875 32.078125 29.296875 
L 19.671875 29.296875 
L 19.671875 0 
L 9.8125 0 
z
" id="DejaVuSans-50"/>
     </defs>
     <g transform="translate(763.983125 86.313362)scale(0.1 -0.1)">
      <use xlink:href="#DejaVuSans-20"/>
      <use x="31.787109" xlink:href="#DejaVuSans-50"/>
      <use x="92.074219" xlink:href="#DejaVuSans-72"/>
      <use x="133.15625" xlink:href="#DejaVuSans-65"/>
      <use x="194.679688" xlink:href="#DejaVuSans-64"/>
      <use x="258.15625" xlink:href="#DejaVuSans-69"/>
      <use x="285.939453" xlink:href="#DejaVuSans-63"/>
      <use x="340.919922" xlink:href="#DejaVuSans-74"/>
      <use x="380.128906" xlink:href="#DejaVuSans-65"/>
      <use x="441.652344" xlink:href="#DejaVuSans-64"/>
      <use x="505.128906" xlink:href="#DejaVuSans-20"/>
      <use x="536.916016" xlink:href="#DejaVuSans-73"/>
      <use x="589.015625" xlink:href="#DejaVuSans-74"/>
      <use x="628.224609" xlink:href="#DejaVuSans-6f"/>
      <use x="689.40625" xlink:href="#DejaVuSans-63"/>
      <use x="744.386719" xlink:href="#DejaVuSans-6b"/>
      <use x="802.296875" xlink:href="#DejaVuSans-20"/>
      <use x="834.083984" xlink:href="#DejaVuSans-70"/>
      <use x="897.560547" xlink:href="#DejaVuSans-72"/>
      <use x="938.673828" xlink:href="#DejaVuSans-69"/>
      <use x="966.457031" xlink:href="#DejaVuSans-63"/>
      <use x="1021.4375" xlink:href="#DejaVuSans-65"/>
     </g>
    </g>
   </g>
  </g>
 </g>
 <defs>
  <clipPath id="p8629c66a34">
   <rect height="353.1528" width="758.88" x="122.4" y="55.0368"/>
  </clipPath>
 </defs>
</svg>
